<svg xmlns="http://www.w3.org/2000/svg" xmlns:xlink="http://www.w3.org/1999/xlink" version="1.1" width="1000" height="1000" viewBox="0 0 1000 1000" xml:space="preserve">
<desc>Created with Fabric.js 3.5.0</desc>
<defs>
</defs>
<rect x="0" y="0" width="100%" height="100%" fill="#ffffff"/>
<g transform="matrix(2.3615 0 0 2.3615 500.009 500.009)" id="262919">
<g style="" vector-effect="non-scaling-stroke">
		<g transform="matrix(1 0 0 1 -96.243 0)" id="Sign_Out">
<path style="stroke: none; stroke-width: 1; stroke-dasharray: none; stroke-linecap: butt; stroke-dashoffset: 0; stroke-linejoin: miter; stroke-miterlimit: 4; is-custom-font: none; font-file-url: none; fill: rgb(0,0,0); fill-opacity: 0; fill-rule: nonzero; opacity: 1;" transform=" translate(-96.2425, -192.4855)" d="M 180.455 360.91 H 24.061 V 24.061 h 156.394 c 6.641 0 12.03 -5.39 12.03 -12.03 s -5.39 -12.03 -12.03 -12.03 H 12.03 C 5.39 0.001 0 5.39 0 12.031 V 372.94 c 0 6.641 5.39 12.03 12.03 12.03 h 168.424 c 6.641 0 12.03 -5.39 12.03 -12.03 C 192.485 366.299 187.095 360.91 180.455 360.91 z" stroke-linecap="round"/>
</g>
		<g transform="matrix(1 0 0 1 42.1248 0.1948)" id="Sign_Out">
<path style="stroke: none; stroke-width: 1; stroke-dasharray: none; stroke-linecap: butt; stroke-dashoffset: 0; stroke-linejoin: miter; stroke-miterlimit: 4; is-custom-font: none; font-file-url: none; fill: rgb(0,0,0); fill-opacity: 0; fill-rule: nonzero; opacity: 1;" transform=" translate(-234.6103, -192.6802)" d="M 381.481 184.088 l -83.009 -84.2 c -4.704 -4.752 -12.319 -4.74 -17.011 0 c -4.704 4.74 -4.704 12.439 0 17.179 l 62.558 63.46 H 96.279 c -6.641 0 -12.03 5.438 -12.03 12.151 c 0 6.713 5.39 12.151 12.03 12.151 h 247.74 l -62.558 63.46 c -4.704 4.752 -4.704 12.439 0 17.179 c 4.704 4.752 12.319 4.752 17.011 0 l 82.997 -84.2 C 386.113 196.588 386.161 188.756 381.481 184.088 z" stroke-linecap="round"/>
</g>
</g>
</g>
</svg>